<svg width="24" height="24" viewBox="0 0 24 24" fill="none" xmlns="http://www.w3.org/2000/svg">
    <path fill-rule="evenodd" clip-rule="evenodd"
          d="M11.2501 6.00013C11.2501 5.58592 11.586 5.25008 12.0002 5.25001C12.4144 5.24994 12.7501 5.58567 12.7501 5.99988L12.7492 11.2509L18.0001 11.25C18.4143 11.2499 18.75 11.5857 18.75 11.9999C18.7499 12.4141 18.4141 12.7499 17.9998 12.75L12.7489 12.7509L12.748 17.9999C12.748 18.4141 12.4121 18.7499 11.9979 18.75C11.5837 18.7501 11.248 18.4143 11.248 18.0001L11.2489 12.7511L5.99984 12.752C5.58563 12.7521 5.2499 12.4164 5.24997 12.0022C5.25004 11.5879 5.58588 11.2521 6.00009 11.252L11.2492 11.2511L11.2501 6.00013Z"
          fill="currentColor"/>
</svg>
